# WaveFront *.obj file (generated by Autodesk ATF)

mtllib 1.mtl

g 1

v 0.037986 -0.000126 0.000000
v 0.037986 0.010044 0.000000
v 0.037986 0.010044 0.001000
v 0.037986 -0.000126 0.001000
v 0.035175 -0.000126 0.000000
v 0.035175 -0.000126 0.001000
v 0.035175 0.006538 0.000000
v 0.035175 0.006538 0.001000
v 0.033855 0.005699 0.000000
v 0.034199 0.005888 0.000000
v 0.034535 0.006088 0.000000
v 0.034858 0.006308 0.000000
v 0.034858 0.006308 0.001000
v 0.034535 0.006088 0.001000
v 0.034199 0.005888 0.001000
v 0.033855 0.005699 0.001000
v 0.032256 0.005085 0.000000
v 0.032664 0.005216 0.000000
v 0.033068 0.005359 0.000000
v 0.033465 0.005522 0.000000
v 0.033465 0.005522 0.001000
v 0.033068 0.005359 0.001000
v 0.032664 0.005216 0.001000
v 0.032256 0.005085 0.001000
v 0.032256 0.007364 0.000000
v 0.032256 0.007364 0.001000
v 0.034459 0.008462 0.000000
v 0.033944 0.008116 0.000000
v 0.033681 0.007956 0.000000
v 0.033409 0.007812 0.000000
v 0.033128 0.007685 0.000000
v 0.032841 0.007571 0.000000
v 0.032841 0.007571 0.001000
v 0.033128 0.007685 0.001000
v 0.033409 0.007812 0.001000
v 0.033681 0.007956 0.001000
v 0.033944 0.008116 0.001000
v 0.034459 0.008462 0.001000
v 0.035687 0.010044 0.000000
v 0.035441 0.009601 0.000000
v 0.035308 0.009387 0.000000
v 0.035163 0.009183 0.000000
v 0.035001 0.008992 0.000000
v 0.034828 0.008809 0.000000
v 0.034828 0.008809 0.001000
v 0.035001 0.008992 0.001000
v 0.035163 0.009183 0.001000
v 0.035308 0.009387 0.001000
v 0.035441 0.009601 0.001000
v 0.035687 0.010044 0.001000
vt 0.000000 0.000000 0.000000
vt 1.017053 0.000000 0.000000
vt 0.000000 0.100000 0.000000
vt 1.017053 0.100000 0.000000
vt 0.000000 0.000000 0.000000
vt 0.281037 0.000000 0.000000
vt 0.000000 0.100000 0.000000
vt 0.281037 0.100000 0.000000
vt -0.000000 0.000000 0.000000
vt 0.666439 0.000000 0.000000
vt -0.000000 0.100000 0.000000
vt 0.666439 0.100000 0.000000
vt -0.156402 0.000000 0.000000
vt -0.117302 0.000000 0.000000
vt -0.156402 0.100000 0.000000
vt -0.117302 0.100000 0.000000
vt -0.078201 0.000000 0.000000
vt -0.078201 0.100000 0.000000
vt -0.039101 0.000000 0.000000
vt -0.039101 0.100000 0.000000
vt 0.000000 0.000000 0.000000
vt 0.000000 0.100000 0.000000
vt -0.171338 0.000000 0.000000
vt -0.128504 0.000000 0.000000
vt -0.171338 0.100000 0.000000
vt -0.128504 0.100000 0.000000
vt -0.085669 0.000000 0.000000
vt -0.085669 0.100000 0.000000
vt -0.042835 0.000000 0.000000
vt -0.042835 0.100000 0.000000
vt 0.000000 0.000000 0.000000
vt 0.000000 0.100000 0.000000
vt -0.000000 0.000000 0.000000
vt 0.227831 0.000000 0.000000
vt -0.000000 0.100000 0.000000
vt 0.227831 0.100000 0.000000
vt -0.246206 0.000000 0.000000
vt -0.184655 0.000000 0.000000
vt -0.246206 0.100000 0.000000
vt -0.184655 0.100000 0.000000
vt -0.153879 0.000000 0.000000
vt -0.153879 0.100000 0.000000
vt -0.123103 0.000000 0.000000
vt -0.123103 0.100000 0.000000
vt -0.092327 0.000000 0.000000
vt -0.092327 0.100000 0.000000
vt -0.061552 0.000000 0.000000
vt -0.061552 0.100000 0.000000
vt 0.000000 0.000000 0.000000
vt 0.000000 0.100000 0.000000
vt -0.200300 0.000000 0.000000
vt -0.150225 0.000000 0.000000
vt -0.200300 0.100000 0.000000
vt -0.150225 0.100000 0.000000
vt -0.125187 0.000000 0.000000
vt -0.125187 0.100000 0.000000
vt -0.100150 0.000000 0.000000
vt -0.100150 0.100000 0.000000
vt -0.075112 0.000000 0.000000
vt -0.075112 0.100000 0.000000
vt -0.050075 0.000000 0.000000
vt -0.050075 0.100000 0.000000
vt 0.000000 0.000000 0.000000
vt 0.000000 0.100000 0.000000
vt -0.000000 0.000000 0.000000
vt 0.229877 0.000000 0.000000
vt -0.000000 0.100000 0.000000
vt 0.229877 0.100000 0.000000
vt -12.332878 1.517735 0.000000
vt -12.332878 2.534789 0.000000
vt -12.613915 2.184175 0.000000
vt -12.562755 2.534789 0.000000
vt -12.587309 2.490452 0.000000
vt -12.600627 2.469093 0.000000
vt -12.615196 2.448705 0.000000
vt -12.631302 2.429514 0.000000
vt -12.648677 2.411307 0.000000
vt -12.685539 2.376535 0.000000
vt -12.645611 2.161142 0.000000
vt -12.677995 2.139196 0.000000
vt -12.737000 2.341977 0.000000
vt -12.711574 2.119139 0.000000
vt -12.763398 2.326006 0.000000
vt -12.745907 2.100273 0.000000
vt -12.790591 2.311596 0.000000
vt -12.784990 2.082588 0.000000
vt -12.818643 2.298870 0.000000
vt -12.824601 2.066264 0.000000
vt -12.847352 2.287434 0.000000
vt -12.865011 2.051999 0.000000
vt -12.905866 2.266712 0.000000
vt -12.905866 2.038881 0.000000
vt -12.613915 1.517735 0.000000
vt 12.587309 2.490452 0.000000
vt 12.562755 2.534789 0.000000
vt 12.613915 2.184175 0.000000
vt 12.332878 2.534789 0.000000
vt 12.332878 1.517735 0.000000
vt 12.613915 1.517735 0.000000
vt 12.645611 2.161142 0.000000
vt 12.685539 2.376535 0.000000
vt 12.648677 2.411307 0.000000
vt 12.631302 2.429514 0.000000
vt 12.677995 2.139196 0.000000
vt 12.737000 2.341977 0.000000
vt 12.711574 2.119139 0.000000
vt 12.763398 2.326006 0.000000
vt 12.745907 2.100273 0.000000
vt 12.790591 2.311596 0.000000
vt 12.784990 2.082588 0.000000
vt 12.818643 2.298870 0.000000
vt 12.824601 2.066264 0.000000
vt 12.847352 2.287434 0.000000
vt 12.865011 2.051999 0.000000
vt 12.905866 2.266712 0.000000
vt 12.905866 2.038881 0.000000
vt 12.615196 2.448705 0.000000
vt 12.600627 2.469093 0.000000
vn 100.000000 0.000000 0.000000
vn 100.000000 0.000000 0.000000
vn 100.000000 0.000000 0.000000
vn 100.000000 0.000000 0.000000
vn 0.000000 -100.000000 0.000000
vn 0.000000 -100.000000 0.000000
vn 0.000000 -100.000000 0.000000
vn 0.000000 -100.000000 0.000000
vn -100.000000 0.000000 0.000000
vn -100.000000 0.000000 0.000000
vn -100.000000 0.000000 0.000000
vn -100.000000 0.000000 0.000000
vn 47.633903 -87.926169 0.000000
vn 49.205427 -87.056453 0.000000
vn 47.633903 -87.926169 0.000000
vn 49.205427 -87.056453 0.000000
vn 53.810719 -84.287641 0.000000
vn 53.810719 -84.287641 0.000000
vn 57.897903 -81.534243 0.000000
vn 57.897903 -81.534243 0.000000
vn 59.225849 -80.574802 0.000000
vn 59.225849 -80.574802 0.000000
vn 30.114776 -95.357749 0.000000
vn 31.478418 -94.916327 0.000000
vn 30.114776 -95.357749 0.000000
vn 31.478418 -94.916327 0.000000
vn 35.538721 -93.471917 0.000000
vn 35.538721 -93.471917 0.000000
vn 40.188066 -91.569205 0.000000
vn 40.188066 -91.569205 0.000000
vn 41.740188 -90.872200 0.000000
vn 41.740188 -90.872200 0.000000
vn -100.000000 0.000000 0.000000
vn -100.000000 0.000000 0.000000
vn -100.000000 0.000000 0.000000
vn -100.000000 0.000000 0.000000
vn -56.784224 82.313740 0.000000
vn -53.643157 84.394382 0.000000
vn -56.784224 82.313740 0.000000
vn -53.643157 84.394382 0.000000
vn -49.578161 86.844723 0.000000
vn -49.578161 86.844723 0.000000
vn -43.912755 89.842473 0.000000
vn -43.912755 89.842473 0.000000
vn -38.927703 92.112073 0.000000
vn -38.927703 92.112073 0.000000
vn -35.317253 93.555821 0.000000
vn -35.317253 93.555821 0.000000
vn -32.412313 94.601490 0.000000
vn -32.412313 94.601490 0.000000
vn -88.136348 47.243879 0.000000
vn -86.113840 50.837058 0.000000
vn -88.136348 47.243879 0.000000
vn -86.113840 50.837058 0.000000
vn -83.346984 55.256496 0.000000
vn -83.346984 55.256496 0.000000
vn -79.056003 61.238455 0.000000
vn -79.056003 61.238455 0.000000
vn -74.268104 66.964533 0.000000
vn -74.268104 66.964533 0.000000
vn -70.624052 70.797198 0.000000
vn -70.624052 70.797198 0.000000
vn -67.602200 73.688144 0.000000
vn -67.602200 73.688144 0.000000
vn 0.000000 100.000000 0.000000
vn 0.000000 100.000000 0.000000
vn 0.000000 100.000000 0.000000
vn 0.000000 100.000000 0.000000
vn 0.000000 0.000000 100.000000
vn 0.000000 0.000000 100.000000
vn 0.000000 0.000000 100.000000
vn 0.000000 0.000000 100.000000
vn 0.000000 0.000000 100.000000
vn 0.000000 0.000000 100.000000
vn 0.000000 0.000000 100.000000
vn 0.000000 0.000000 100.000000
vn 0.000000 0.000000 100.000000
vn 0.000000 0.000000 100.000000
vn 0.000000 0.000000 100.000000
vn 0.000000 0.000000 100.000000
vn 0.000000 0.000000 100.000000
vn 0.000000 0.000000 100.000000
vn 0.000000 0.000000 100.000000
vn 0.000000 0.000000 100.000000
vn 0.000000 0.000000 100.000000
vn 0.000000 0.000000 100.000000
vn 0.000000 0.000000 100.000000
vn 0.000000 0.000000 100.000000
vn 0.000000 0.000000 100.000000
vn 0.000000 0.000000 100.000000
vn 0.000000 0.000000 100.000000
vn 0.000000 0.000000 100.000000
vn 0.000000 0.000000 100.000000
vn 0.000000 0.000000 -100.000000
vn 0.000000 0.000000 -100.000000
vn 0.000000 0.000000 -100.000000
vn 0.000000 0.000000 -100.000000
vn 0.000000 0.000000 -100.000000
vn 0.000000 0.000000 -100.000000
vn 0.000000 0.000000 -100.000000
vn 0.000000 0.000000 -100.000000
vn 0.000000 0.000000 -100.000000
vn 0.000000 0.000000 -100.000000
vn 0.000000 0.000000 -100.000000
vn 0.000000 0.000000 -100.000000
vn 0.000000 0.000000 -100.000000
vn 0.000000 0.000000 -100.000000
vn 0.000000 0.000000 -100.000000
vn 0.000000 0.000000 -100.000000
vn 0.000000 0.000000 -100.000000
vn 0.000000 0.000000 -100.000000
vn 0.000000 0.000000 -100.000000
vn 0.000000 0.000000 -100.000000
vn 0.000000 0.000000 -100.000000
vn 0.000000 0.000000 -100.000000
vn 0.000000 0.000000 -100.000000
vn 0.000000 0.000000 -100.000000
vn 0.000000 0.000000 -100.000000
usemtl Steel_-_Satin
f 1/1/1 2/2/2 4/3/3
f 4/3/3 2/2/2 3/4/4
f 5/5/5 1/6/6 6/7/7
f 6/7/7 1/6/6 4/8/8
f 7/9/9 5/10/10 8/11/11
f 8/11/11 5/10/10 6/12/12
f 9/13/13 10/14/14 16/15/15
f 16/15/15 10/14/14 15/16/16
f 15/16/16 10/14/14 11/17/17
f 15/16/16 11/17/17 14/18/18
f 14/18/18 11/17/17 12/19/19
f 14/18/18 12/19/19 13/20/20
f 13/20/20 12/19/19 7/21/21
f 13/20/20 7/21/21 8/22/22
f 17/23/23 18/24/24 24/25/25
f 24/25/25 18/24/24 23/26/26
f 23/26/26 18/24/24 19/27/27
f 23/26/26 19/27/27 22/28/28
f 22/28/28 19/27/27 20/29/29
f 22/28/28 20/29/29 21/30/30
f 21/30/30 20/29/29 9/31/31
f 21/30/30 9/31/31 16/32/32
f 25/33/33 17/34/34 26/35/35
f 26/35/35 17/34/34 24/36/36
f 27/37/37 28/38/38 38/39/39
f 38/39/39 28/38/38 37/40/40
f 37/40/40 28/38/38 29/41/41
f 37/40/40 29/41/41 36/42/42
f 36/42/42 29/41/41 30/43/43
f 36/42/42 30/43/43 35/44/44
f 35/44/44 30/43/43 31/45/45
f 35/44/44 31/45/45 34/46/46
f 34/46/46 31/45/45 32/47/47
f 34/46/46 32/47/47 33/48/48
f 33/48/48 32/47/47 25/49/49
f 33/48/48 25/49/49 26/50/50
f 39/51/51 40/52/52 50/53/53
f 50/53/53 40/52/52 49/54/54
f 49/54/54 40/52/52 41/55/55
f 49/54/54 41/55/55 48/56/56
f 48/56/56 41/55/55 42/57/57
f 48/56/56 42/57/57 47/58/58
f 47/58/58 42/57/57 43/59/59
f 47/58/58 43/59/59 46/60/60
f 46/60/60 43/59/59 44/61/61
f 46/60/60 44/61/61 45/62/62
f 45/62/62 44/61/61 27/63/63
f 45/62/62 27/63/63 38/64/64
f 2/65/65 39/66/66 3/67/67
f 3/67/67 39/66/66 50/68/68
f 4/69/69 3/70/70 8/71/71
f 8/71/71 3/70/70 50/72/72
f 8/71/71 50/72/72 49/73/73
f 49/73/73 48/74/74 8/71/71
f 8/71/71 48/74/74 47/75/75
f 8/71/71 47/75/75 46/76/76
f 46/76/76 45/77/77 8/71/71
f 8/71/71 45/77/77 38/78/78
f 8/71/71 38/78/78 13/79/79
f 13/79/79 38/78/78 14/80/80
f 14/80/80 38/78/78 37/81/81
f 14/80/80 37/81/81 15/82/82
f 15/82/82 37/81/81 36/83/83
f 15/82/82 36/83/83 16/84/84
f 16/84/84 36/83/83 35/85/85
f 16/84/84 35/85/85 21/86/86
f 21/86/86 35/85/85 34/87/87
f 21/86/86 34/87/87 22/88/88
f 22/88/88 34/87/87 33/89/89
f 22/88/88 33/89/89 23/90/90
f 23/90/90 33/89/89 26/91/91
f 23/90/90 26/91/91 24/92/92
f 8/71/71 6/93/93 4/69/69
f 40/94/94 39/95/95 7/96/96
f 7/96/96 39/95/95 2/97/97
f 7/96/96 2/97/97 1/98/98
f 1/98/98 5/99/99 7/96/96
f 12/100/100 27/101/101 7/96/96
f 7/96/96 27/101/101 44/102/102
f 7/96/96 44/102/102 43/103/103
f 12/100/100 11/104/104 27/101/101
f 27/101/101 11/104/104 28/105/105
f 28/105/105 11/104/104 10/106/106
f 28/105/105 10/106/106 29/107/107
f 29/107/107 10/106/106 9/108/108
f 29/107/107 9/108/108 30/109/109
f 30/109/109 9/108/108 20/110/110
f 30/109/109 20/110/110 31/111/111
f 31/111/111 20/110/110 19/112/112
f 31/111/111 19/112/112 32/113/113
f 32/113/113 19/112/112 18/114/114
f 32/113/113 18/114/114 25/115/115
f 25/115/115 18/114/114 17/116/116
f 43/103/103 42/117/117 7/96/96
f 7/96/96 42/117/117 41/118/118
f 7/96/96 41/118/118 40/94/94
# 50 vertices
# 118 texture params
# 118 normals
# 96 facets

# 1 groups
