# WaveFront *.obj file (generated by Autodesk ATF)

mtllib 7.mtl

g 7

v 0.095755 0.009874 0.000000
v 0.087645 0.009874 0.000000
v 0.087645 0.009874 0.001000
v 0.095755 0.009874 0.001000
v 0.095755 0.007998 0.000000
v 0.095755 0.007998 0.001000
v 0.093988 0.005931 0.000000
v 0.094382 0.006489 0.000000
v 0.094587 0.006761 0.000000
v 0.094802 0.007024 0.000000
v 0.095029 0.007277 0.000000
v 0.095266 0.007522 0.000000
v 0.095266 0.007522 0.001000
v 0.095029 0.007277 0.001000
v 0.094802 0.007024 0.001000
v 0.094587 0.006761 0.001000
v 0.094382 0.006489 0.001000
v 0.093988 0.005931 0.001000
v 0.092631 0.002923 0.000000
v 0.092899 0.003707 0.000000
v 0.093045 0.004094 0.000000
v 0.093206 0.004474 0.000000
v 0.093384 0.004846 0.000000
v 0.093577 0.005211 0.000000
v 0.093577 0.005211 0.001000
v 0.093384 0.004846 0.001000
v 0.093206 0.004474 0.001000
v 0.093045 0.004094 0.001000
v 0.092899 0.003707 0.001000
v 0.092631 0.002923 0.001000
v 0.092099 -0.000126 0.000000
v 0.092176 0.000646 0.000000
v 0.092223 0.001031 0.000000
v 0.092282 0.001413 0.000000
v 0.092355 0.001793 0.000000
v 0.092440 0.002171 0.000000
v 0.092440 0.002171 0.001000
v 0.092355 0.001793 0.001000
v 0.092282 0.001413 0.001000
v 0.092223 0.001031 0.001000
v 0.092176 0.000646 0.001000
v 0.092099 -0.000126 0.001000
v 0.089329 -0.000126 0.000000
v 0.089329 -0.000126 0.001000
v 0.090360 0.003980 0.000000
v 0.090007 0.002978 0.000000
v 0.089848 0.002472 0.000000
v 0.089709 0.001962 0.000000
v 0.089594 0.001445 0.000000
v 0.089496 0.000924 0.000000
v 0.089496 0.000924 0.001000
v 0.089594 0.001445 0.001000
v 0.089709 0.001962 0.001000
v 0.089848 0.002472 0.001000
v 0.090007 0.002978 0.001000
v 0.090360 0.003980 0.001000
v 0.092583 0.007527 0.000000
v 0.091945 0.006691 0.000000
v 0.091640 0.006265 0.000000
v 0.091350 0.005829 0.000000
v 0.091081 0.005380 0.000000
v 0.090830 0.004920 0.000000
v 0.090830 0.004920 0.001000
v 0.091081 0.005380 0.001000
v 0.091350 0.005829 0.001000
v 0.091640 0.006265 0.001000
v 0.091945 0.006691 0.001000
v 0.092583 0.007527 0.001000
v 0.087645 0.007527 0.000000
v 0.087645 0.007527 0.001000
vt -0.000000 0.000000 0.000000
vt 0.811050 0.000000 0.000000
vt -0.000000 0.100000 0.000000
vt 0.811050 0.100000 0.000000
vt 0.000000 0.000000 0.000000
vt 0.187585 0.000000 0.000000
vt 0.000000 0.100000 0.000000
vt 0.187585 0.100000 0.000000
vt -0.271904 0.000000 0.000000
vt -0.203928 0.000000 0.000000
vt -0.271904 0.100000 0.000000
vt -0.203928 0.100000 0.000000
vt -0.169940 0.000000 0.000000
vt -0.169940 0.100000 0.000000
vt -0.135952 0.000000 0.000000
vt -0.135952 0.100000 0.000000
vt -0.101964 0.000000 0.000000
vt -0.101964 0.100000 0.000000
vt -0.067976 0.000000 0.000000
vt -0.067976 0.100000 0.000000
vt 0.000000 0.000000 0.000000
vt 0.000000 0.100000 0.000000
vt -0.330028 0.000000 0.000000
vt -0.247521 0.000000 0.000000
vt -0.330028 0.100000 0.000000
vt -0.247521 0.100000 0.000000
vt -0.206268 0.000000 0.000000
vt -0.206268 0.100000 0.000000
vt -0.165014 0.000000 0.000000
vt -0.165014 0.100000 0.000000
vt -0.123761 0.000000 0.000000
vt -0.123761 0.100000 0.000000
vt -0.082507 0.000000 0.000000
vt -0.082507 0.100000 0.000000
vt 0.000000 0.000000 0.000000
vt 0.000000 0.100000 0.000000
vt -0.309524 0.000000 0.000000
vt -0.232143 0.000000 0.000000
vt -0.309524 0.100000 0.000000
vt -0.232143 0.100000 0.000000
vt -0.193453 0.000000 0.000000
vt -0.193453 0.100000 0.000000
vt -0.154762 0.000000 0.000000
vt -0.154762 0.100000 0.000000
vt -0.116072 0.000000 0.000000
vt -0.116072 0.100000 0.000000
vt -0.077381 0.000000 0.000000
vt -0.077381 0.100000 0.000000
vt 0.000000 0.000000 0.000000
vt 0.000000 0.100000 0.000000
vt 0.000000 0.000000 0.000000
vt 0.276944 0.000000 0.000000
vt 0.000000 0.100000 0.000000
vt 0.276944 0.100000 0.000000
vt -0.423377 0.000000 0.000000
vt -0.317533 0.000000 0.000000
vt -0.423377 0.100000 0.000000
vt -0.317533 0.100000 0.000000
vt -0.264611 0.000000 0.000000
vt -0.264611 0.100000 0.000000
vt -0.211689 0.000000 0.000000
vt -0.211689 0.100000 0.000000
vt -0.158767 0.000000 0.000000
vt -0.158767 0.100000 0.000000
vt -0.105844 0.000000 0.000000
vt -0.105844 0.100000 0.000000
vt 0.000000 0.000000 0.000000
vt 0.000000 0.100000 0.000000
vt -0.418663 0.000000 0.000000
vt -0.313997 0.000000 0.000000
vt -0.418663 0.100000 0.000000
vt -0.313997 0.100000 0.000000
vt -0.261664 0.000000 0.000000
vt -0.261664 0.100000 0.000000
vt -0.209331 0.000000 0.000000
vt -0.209331 0.100000 0.000000
vt -0.156999 0.000000 0.000000
vt -0.156999 0.100000 0.000000
vt -0.104666 0.000000 0.000000
vt -0.104666 0.100000 0.000000
vt 0.000000 0.000000 0.000000
vt 0.000000 0.100000 0.000000
vt 0.000000 0.000000 0.000000
vt 0.493861 0.000000 0.000000
vt 0.000000 0.100000 0.000000
vt 0.493861 0.100000 0.000000
vt -0.000000 0.000000 0.000000
vt 0.234652 0.000000 0.000000
vt -0.000000 0.100000 0.000000
vt 0.234652 0.100000 0.000000
vt -7.366985 2.283083 0.000000
vt -6.873124 2.283083 0.000000
vt -7.366985 2.517735 0.000000
vt -6.555934 2.517735 0.000000
vt -6.604870 2.282544 0.000000
vt -6.555934 2.330150 0.000000
vt -6.936922 2.199491 0.000000
vt -6.732605 2.123465 0.000000
vt -6.693257 2.179245 0.000000
vt -6.672749 2.206424 0.000000
vt -6.967492 2.156872 0.000000
vt -6.793033 2.014972 0.000000
vt -6.773718 2.051511 0.000000
vt -6.810859 1.977758 0.000000
vt -6.996467 2.113264 0.000000
vt -6.826902 1.939737 0.000000
vt -7.023383 2.068380 0.000000
vt -6.841513 1.901067 0.000000
vt -7.048451 2.022350 0.000000
vt -6.868349 1.822647 0.000000
vt -7.095498 1.928377 0.000000
vt -6.887469 1.747456 0.000000
vt -7.130767 1.828157 0.000000
vt -6.895984 1.709675 0.000000
vt -7.146675 1.777605 0.000000
vt -6.903248 1.671670 0.000000
vt -7.160519 1.726523 0.000000
vt -6.909102 1.633414 0.000000
vt -7.172075 1.674855 0.000000
vt -6.913862 1.594963 0.000000
vt -7.181864 1.622733 0.000000
vt -6.921555 1.517735 0.000000
vt -7.198499 1.517735 0.000000
vt -6.651242 2.232751 0.000000
vt -6.628537 2.258057 0.000000
vt 7.366985 2.283083 0.000000
vt 7.366985 2.517735 0.000000
vt 6.873124 2.283083 0.000000
vt 6.555934 2.517735 0.000000
vt 6.604870 2.282544 0.000000
vt 6.555934 2.330150 0.000000
vt 6.628537 2.258057 0.000000
vt 6.651242 2.232751 0.000000
vt 6.672749 2.206424 0.000000
vt 6.693257 2.179245 0.000000
vt 6.732605 2.123465 0.000000
vt 6.936922 2.199491 0.000000
vt 6.773718 2.051511 0.000000
vt 6.793033 2.014972 0.000000
vt 6.967492 2.156872 0.000000
vt 6.810859 1.977758 0.000000
vt 6.996467 2.113264 0.000000
vt 6.826902 1.939737 0.000000
vt 7.023383 2.068380 0.000000
vt 6.841513 1.901067 0.000000
vt 7.048451 2.022350 0.000000
vt 6.868349 1.822647 0.000000
vt 7.095498 1.928377 0.000000
vt 6.887469 1.747456 0.000000
vt 7.130767 1.828157 0.000000
vt 6.895984 1.709675 0.000000
vt 7.146675 1.777605 0.000000
vt 6.903248 1.671670 0.000000
vt 7.160519 1.726523 0.000000
vt 6.909102 1.633414 0.000000
vt 7.172075 1.674855 0.000000
vt 6.913862 1.594963 0.000000
vt 7.181864 1.622733 0.000000
vt 6.921555 1.517735 0.000000
vt 7.198499 1.517735 0.000000
vn 0.000000 100.000000 0.000000
vn 0.000000 100.000000 0.000000
vn 0.000000 100.000000 0.000000
vn 0.000000 100.000000 0.000000
vn 100.000000 0.000000 0.000000
vn 100.000000 0.000000 0.000000
vn 100.000000 0.000000 0.000000
vn 100.000000 0.000000 0.000000
vn 82.202180 -56.945603 0.000000
vn 80.718719 -59.029555 0.000000
vn 82.202180 -56.945603 0.000000
vn 80.718719 -59.029555 0.000000
vn 78.781983 -61.590577 0.000000
vn 78.781983 -61.590577 0.000000
vn 75.930969 -65.072944 0.000000
vn 75.930969 -65.072944 0.000000
vn 73.039599 -68.302393 0.000000
vn 73.039599 -68.302393 0.000000
vn 70.896755 -70.524111 0.000000
vn 70.896755 -70.524111 0.000000
vn 69.141137 -72.246129 0.000000
vn 69.141137 -72.246129 0.000000
vn 94.881635 -31.582833 0.000000
vn 94.056040 -33.962646 0.000000
vn 94.881635 -31.582833 0.000000
vn 94.056040 -33.962646 0.000000
vn 92.935107 -36.919722 0.000000
vn 92.935107 -36.919722 0.000000
vn 91.203996 -41.010134 0.000000
vn 91.203996 -41.010134 0.000000
vn 89.215418 -45.173102 0.000000
vn 89.215418 -45.173102 0.000000
vn 87.680598 -48.084434 0.000000
vn 87.680598 -48.084434 0.000000
vn 86.390091 -50.366181 0.000000
vn 86.390091 -50.366181 0.000000
vn 99.568397 -9.280854 0.000000
vn 99.373390 -11.177180 0.000000
vn 99.568397 -9.280854 0.000000
vn 99.373390 -11.177180 0.000000
vn 99.077983 -13.548183 0.000000
vn 99.077983 -13.548183 0.000000
vn 98.568221 -16.861372 0.000000
vn 98.568221 -16.861372 0.000000
vn 97.863829 -20.558963 0.000000
vn 97.863829 -20.558963 0.000000
vn 97.264441 -23.229904 0.000000
vn 97.264441 -23.229904 0.000000
vn 96.733967 -25.348366 0.000000
vn 96.733967 -25.348366 0.000000
vn 0.000000 -100.000000 0.000000
vn 0.000000 -100.000000 0.000000
vn 0.000000 -100.000000 0.000000
vn 0.000000 -100.000000 0.000000
vn -94.029784 34.035271 0.000000
vn -94.906673 31.507514 0.000000
vn -94.029784 34.035271 0.000000
vn -94.906673 31.507514 0.000000
vn -95.911032 28.303250 0.000000
vn -95.911032 28.303250 0.000000
vn -97.107990 23.875476 0.000000
vn -97.107990 23.875476 0.000000
vn -97.988307 19.957248 0.000000
vn -97.988307 19.957248 0.000000
vn -98.518861 17.147418 0.000000
vn -98.518861 17.147418 0.000000
vn -98.883980 14.898271 0.000000
vn -98.883980 14.898271 0.000000
vn -79.012596 61.294450 0.000000
vn -80.442281 59.405719 0.000000
vn -79.012596 61.294450 0.000000
vn -80.442281 59.405719 0.000000
vn -82.172994 56.987709 0.000000
vn -82.172994 56.987709 0.000000
vn -84.481185 53.506348 0.000000
vn -84.481185 53.506348 0.000000
vn -86.922663 49.441387 0.000000
vn -86.922663 49.441387 0.000000
vn -88.581400 46.404047 0.000000
vn -88.581400 46.404047 0.000000
vn -89.826806 43.944795 0.000000
vn -89.826806 43.944795 0.000000
vn 0.000000 -100.000000 0.000000
vn 0.000000 -100.000000 0.000000
vn 0.000000 -100.000000 0.000000
vn 0.000000 -100.000000 0.000000
vn -100.000000 0.000000 0.000000
vn -100.000000 0.000000 0.000000
vn -100.000000 0.000000 0.000000
vn -100.000000 0.000000 0.000000
vn 0.000000 0.000000 100.000000
vn 0.000000 0.000000 100.000000
vn 0.000000 0.000000 100.000000
vn 0.000000 0.000000 100.000000
vn 0.000000 0.000000 100.000000
vn 0.000000 0.000000 100.000000
vn 0.000000 0.000000 100.000000
vn 0.000000 0.000000 100.000000
vn 0.000000 0.000000 100.000000
vn 0.000000 0.000000 100.000000
vn 0.000000 0.000000 100.000000
vn 0.000000 0.000000 100.000000
vn 0.000000 0.000000 100.000000
vn 0.000000 0.000000 100.000000
vn 0.000000 0.000000 100.000000
vn 0.000000 0.000000 100.000000
vn 0.000000 0.000000 100.000000
vn 0.000000 0.000000 100.000000
vn 0.000000 0.000000 100.000000
vn 0.000000 0.000000 100.000000
vn 0.000000 0.000000 100.000000
vn 0.000000 0.000000 100.000000
vn 0.000000 0.000000 100.000000
vn 0.000000 0.000000 100.000000
vn 0.000000 0.000000 100.000000
vn 0.000000 0.000000 100.000000
vn 0.000000 0.000000 100.000000
vn 0.000000 0.000000 100.000000
vn 0.000000 0.000000 100.000000
vn 0.000000 0.000000 100.000000
vn 0.000000 0.000000 100.000000
vn 0.000000 0.000000 100.000000
vn 0.000000 0.000000 100.000000
vn 0.000000 0.000000 100.000000
vn 0.000000 0.000000 100.000000
vn 0.000000 0.000000 -100.000000
vn 0.000000 0.000000 -100.000000
vn 0.000000 0.000000 -100.000000
vn 0.000000 0.000000 -100.000000
vn 0.000000 0.000000 -100.000000
vn 0.000000 0.000000 -100.000000
vn 0.000000 0.000000 -100.000000
vn 0.000000 0.000000 -100.000000
vn 0.000000 0.000000 -100.000000
vn 0.000000 0.000000 -100.000000
vn 0.000000 0.000000 -100.000000
vn 0.000000 0.000000 -100.000000
vn 0.000000 0.000000 -100.000000
vn 0.000000 0.000000 -100.000000
vn 0.000000 0.000000 -100.000000
vn 0.000000 0.000000 -100.000000
vn 0.000000 0.000000 -100.000000
vn 0.000000 0.000000 -100.000000
vn 0.000000 0.000000 -100.000000
vn 0.000000 0.000000 -100.000000
vn 0.000000 0.000000 -100.000000
vn 0.000000 0.000000 -100.000000
vn 0.000000 0.000000 -100.000000
vn 0.000000 0.000000 -100.000000
vn 0.000000 0.000000 -100.000000
vn 0.000000 0.000000 -100.000000
vn 0.000000 0.000000 -100.000000
vn 0.000000 0.000000 -100.000000
vn 0.000000 0.000000 -100.000000
vn 0.000000 0.000000 -100.000000
vn 0.000000 0.000000 -100.000000
vn 0.000000 0.000000 -100.000000
vn 0.000000 0.000000 -100.000000
vn 0.000000 0.000000 -100.000000
vn 0.000000 0.000000 -100.000000
usemtl Steel_-_Satin
f 1/1/1 2/2/2 4/3/3
f 4/3/3 2/2/2 3/4/4
f 5/5/5 1/6/6 6/7/7
f 6/7/7 1/6/6 4/8/8
f 7/9/9 8/10/10 18/11/11
f 18/11/11 8/10/10 17/12/12
f 17/12/12 8/10/10 9/13/13
f 17/12/12 9/13/13 16/14/14
f 16/14/14 9/13/13 10/15/15
f 16/14/14 10/15/15 15/16/16
f 15/16/16 10/15/15 11/17/17
f 15/16/16 11/17/17 14/18/18
f 14/18/18 11/17/17 12/19/19
f 14/18/18 12/19/19 13/20/20
f 13/20/20 12/19/19 5/21/21
f 13/20/20 5/21/21 6/22/22
f 19/23/23 20/24/24 30/25/25
f 30/25/25 20/24/24 29/26/26
f 29/26/26 20/24/24 21/27/27
f 29/26/26 21/27/27 28/28/28
f 28/28/28 21/27/27 22/29/29
f 28/28/28 22/29/29 27/30/30
f 27/30/30 22/29/29 23/31/31
f 27/30/30 23/31/31 26/32/32
f 26/32/32 23/31/31 24/33/33
f 26/32/32 24/33/33 25/34/34
f 25/34/34 24/33/33 7/35/35
f 25/34/34 7/35/35 18/36/36
f 31/37/37 32/38/38 42/39/39
f 42/39/39 32/38/38 41/40/40
f 41/40/40 32/38/38 33/41/41
f 41/40/40 33/41/41 40/42/42
f 40/42/42 33/41/41 34/43/43
f 40/42/42 34/43/43 39/44/44
f 39/44/44 34/43/43 35/45/45
f 39/44/44 35/45/45 38/46/46
f 38/46/46 35/45/45 36/47/47
f 38/46/46 36/47/47 37/48/48
f 37/48/48 36/47/47 19/49/49
f 37/48/48 19/49/49 30/50/50
f 43/51/51 31/52/52 44/53/53
f 44/53/53 31/52/52 42/54/54
f 45/55/55 46/56/56 56/57/57
f 56/57/57 46/56/56 55/58/58
f 55/58/58 46/56/56 47/59/59
f 55/58/58 47/59/59 54/60/60
f 54/60/60 47/59/59 48/61/61
f 54/60/60 48/61/61 53/62/62
f 53/62/62 48/61/61 49/63/63
f 53/62/62 49/63/63 52/64/64
f 52/64/64 49/63/63 50/65/65
f 52/64/64 50/65/65 51/66/66
f 51/66/66 50/65/65 43/67/67
f 51/66/66 43/67/67 44/68/68
f 57/69/69 58/70/70 68/71/71
f 68/71/71 58/70/70 67/72/72
f 67/72/72 58/70/70 59/73/73
f 67/72/72 59/73/73 66/74/74
f 66/74/74 59/73/73 60/75/75
f 66/74/74 60/75/75 65/76/76
f 65/76/76 60/75/75 61/77/77
f 65/76/76 61/77/77 64/78/78
f 64/78/78 61/77/77 62/79/79
f 64/78/78 62/79/79 63/80/80
f 63/80/80 62/79/79 45/81/81
f 63/80/80 45/81/81 56/82/82
f 69/83/83 57/84/84 70/85/85
f 70/85/85 57/84/84 68/86/86
f 2/87/87 69/88/88 3/89/89
f 3/89/89 69/88/88 70/90/90
f 70/91/91 68/92/92 3/93/93
f 3/93/93 68/92/92 4/94/94
f 4/94/94 68/92/92 13/95/95
f 4/94/94 13/95/95 6/96/96
f 67/97/97 18/98/98 68/92/92
f 68/92/92 18/98/98 17/99/99
f 68/92/92 17/99/99 16/100/100
f 66/101/101 26/102/102 67/97/97
f 67/97/97 26/102/102 25/103/103
f 67/97/97 25/103/103 18/98/98
f 26/102/102 66/101/101 27/104/104
f 27/104/104 66/101/101 65/105/105
f 27/104/104 65/105/105 28/106/106
f 28/106/106 65/105/105 64/107/107
f 28/106/106 64/107/107 29/108/108
f 29/108/108 64/107/107 63/109/109
f 29/108/108 63/109/109 30/110/110
f 30/110/110 63/109/109 56/111/111
f 30/110/110 56/111/111 37/112/112
f 37/112/112 56/111/111 55/113/113
f 37/112/112 55/113/113 38/114/114
f 38/114/114 55/113/113 54/115/115
f 38/114/114 54/115/115 39/116/116
f 39/116/116 54/115/115 53/117/117
f 39/116/116 53/117/117 40/118/118
f 40/118/118 53/117/117 52/119/119
f 40/118/118 52/119/119 41/120/120
f 41/120/120 52/119/119 51/121/121
f 41/120/120 51/121/121 42/122/122
f 42/122/122 51/121/121 44/123/123
f 16/100/100 15/124/124 68/92/92
f 68/92/92 15/124/124 14/125/125
f 68/92/92 14/125/125 13/95/95
f 69/126/126 2/127/127 57/128/128
f 57/128/128 2/127/127 1/129/129
f 57/128/128 1/129/129 12/130/130
f 12/130/130 1/129/129 5/131/131
f 12/130/130 11/132/132 57/128/128
f 57/128/128 11/132/132 10/133/133
f 57/128/128 10/133/133 9/134/134
f 9/134/134 8/135/135 57/128/128
f 57/128/128 8/135/135 7/136/136
f 57/128/128 7/136/136 58/137/137
f 58/137/137 7/136/136 24/138/138
f 58/137/137 24/138/138 23/139/139
f 58/137/137 23/139/139 59/140/140
f 59/140/140 23/139/139 22/141/141
f 59/140/140 22/141/141 60/142/142
f 60/142/142 22/141/141 21/143/143
f 60/142/142 21/143/143 61/144/144
f 61/144/144 21/143/143 20/145/145
f 61/144/144 20/145/145 62/146/146
f 62/146/146 20/145/145 19/147/147
f 62/146/146 19/147/147 45/148/148
f 45/148/148 19/147/147 36/149/149
f 45/148/148 36/149/149 46/150/150
f 46/150/150 36/149/149 35/151/151
f 46/150/150 35/151/151 47/152/152
f 47/152/152 35/151/151 34/153/153
f 47/152/152 34/153/153 48/154/154
f 48/154/154 34/153/153 33/155/155
f 48/154/154 33/155/155 49/156/156
f 49/156/156 33/155/155 32/157/157
f 49/156/156 32/157/157 50/158/158
f 50/158/158 32/157/157 31/159/159
f 50/158/158 31/159/159 43/160/160
# 70 vertices
# 160 texture params
# 160 normals
# 136 facets

# 1 groups
